# xmcd
#
# Track frame offsets: 
#        150
#        11245
#        28340
#        47280
#        65392
#        94790
#        109055
#        127960
#        142092
#        152662
#
# Disc length: 2379 seconds
#
# Revision: 10
# Processed by: cddbd v1.5.2PL0 Copyright (c) Steve Scherf et al.
# Submitted via: ExactAudioCopy v1.0b3
#
DISCID=8209490a
DTITLE=UFO - Phenomenon
DYEAR=1974
DGENRE=Hard Rock
TTITLE0=Oh My
TTITLE1=Crystal Light
TTITLE2=Doctor Doctor
TTITLE3=Space Child
TTITLE4=Rock Bottom
TTITLE5=Too Young To Know
TTITLE6=Time On My Hands
TTITLE7=Built For Comfort
TTITLE8=Lipstick Traces
TTITLE9=Queen Of The Deep
EXTD=YEAR: 1974
EXTT0=
EXTT1=
EXTT2=
EXTT3=
EXTT4=
EXTT5=
EXTT6=
EXTT7=
EXTT8=
EXTT9=
PLAYORDER=
